<?xml version="1.0" encoding="iso-8859-1"?>
<!-- Generator: Adobe Illustrator 19.0.0, SVG Export Plug-In . SVG Version: 6.00 Build 0)  -->
<svg version="1.1" id="Layer_1" xmlns="http://www.w3.org/2000/svg" xmlns:xlink="http://www.w3.org/1999/xlink" x="0px" y="0px"
	width="128px" viewBox="0 0 460 460" style="enable-background:new 0 0 459.26 459.26;" xml:space="preserve">
<g>
	<polygon style="fill:#666666;" points="223.56,417.919 154.7,417.919 162.38,383.419 166.05,366.919 212.2,366.919 215.88,383.419 
			"/>
	<path style="fill:#B3B3B3;" d="M378.26,292.029v57.69c0,9.5-7.7,17.2-17.2,17.2H17.2c-9.5,0-17.2-7.7-17.2-17.2v-227.79
		c0-9.5,7.7-17.2,17.2-17.2H79v23H23v216.19h332.26v-51.89H378.26z"/>
	<polygon style="fill:#4D4D4D;" points="215.88,383.419 162.38,383.419 166.05,366.919 212.2,366.919 	"/>
	<rect x="362.29" y="83.539" style="fill:#B3B3B3;" width="74.07" height="143.49"/>
	<rect x="256.14" y="83.539" style="fill:#B3B3B3;" width="74.07" height="143.49"/>
	<rect x="149.99" y="83.539" style="fill:#B3B3B3;" width="74.07" height="143.49"/>
	<polygon style="fill:black;" points="355.26,292.029 355.26,343.919 23,343.919 23,127.729 79,127.729 79,292.029 	"/>
	<path style="fill:#E6E6E6;" d="M126.99,60.539v189.49h332.27V60.539H126.99z M224.06,227.029h-74.07V83.539h74.07V227.029z
		 M330.21,227.029h-74.07V83.539h74.07V227.029z M436.36,227.029h-74.07V83.539h74.07V227.029z"/>
	<rect x="126.99" y="33.839" style="fill:#88C5FC;" width="332.27" height="26.7"/>
	<rect x="126.035" y="410.421" style="fill:#B3B3B3;" width="126.181" height="15"/>
	<path style="opacity:0.23;fill:#F2F2F2;enable-background:new    ;" d="M378.26,292.029v57.69c0,9.5-7.7,17.2-17.2,17.2H201.83
		l38.973-74.89H378.26z"/>
	<path style="opacity:0.23;fill:#F2F2F2;enable-background:new    ;" d="M88.31,125.879L0,295.589v-173.66c0-9.5,7.7-17.2,17.2-17.2
		H79L88.31,125.879z"/>
	<polygon style="fill:#DD4814;" points="411.26,250.029 411.26,292.029 79,292.029 79,75.839 126.99,75.839 126.99,250.029 	"/>
	<path style="opacity:0.23;fill:#808080;enable-background:new    ;" d="M126.99,250.029V75.839h-15v189.19h299.27v-15
		L126.99,250.029L126.99,250.029z"/>
	<polygon style="opacity:0.23;fill:#808080;enable-background:new    ;" points="378.26,292.029 378.26,307.029 64,307.029 
		64,104.729 79,104.729 79,292.029 	"/>
	<g>
		<polygon style="opacity:0.23;fill:#F2F2F2;enable-background:new    ;" points="459.26,33.839 459.26,250.029 333.85,250.029 
			335.35,247.139 362.29,195.369 420.49,83.539 432.46,60.539 439.44,47.119 446.35,33.839 		"/>
		<polygon style="opacity:0.23;fill:#F2F2F2;enable-background:new    ;" points="206.66,33.839 192.87,60.539 181,83.539 
			149.99,143.579 126.99,188.119 126.99,33.839 		"/>
	</g>
</g>
<g>
</g>
<g>
</g>
<g>
</g>
<g>
</g>
<g>
</g>
<g>
</g>
<g>
</g>
<g>
</g>
<g>
</g>
<g>
</g>
<g>
</g>
<g>
</g>
<g>
</g>
<g>
</g>
<g>
</g>
</svg>
