<svg xmlns="http://www.w3.org/2000/svg" xmlns:xlink="http://www.w3.org/1999/xlink" version="1.0" height="128"
   width="128">
   <defs>
      <linearGradient id="prefix__c">
         <stop offset="0" stop-color="#2d2839" />
         <stop offset="1" stop-color="#282433" />
      </linearGradient>
      <linearGradient id="prefix__b">
         <stop offset="0" stop-color="#fff" />
         <stop offset="1" stop-color="#fff" stop-opacity=".094" />
      </linearGradient>
      <linearGradient id="prefix__a">
         <stop offset="0" stop-color="#77767b" />
         <stop offset=".05" stop-color="#c0bfbc" />
         <stop offset=".1" stop-color="#9a9996" />
         <stop offset=".9" stop-color="#9a9996" />
         <stop offset=".95" stop-color="#c0bfbc" />
         <stop offset="1" stop-color="#77767b" />
      </linearGradient>
      <linearGradient gradientUnits="userSpaceOnUse" y2="44" x2="464" y1="44" x1="48" id="prefix__d"
         xlink:href="#prefix__a" />
      <linearGradient gradientUnits="userSpaceOnUse" y2="269.137" x2="70.347" y1="245.395" x1="70.347" id="prefix__f"
         xlink:href="#prefix__c" />
      <radialGradient gradientUnits="userSpaceOnUse" gradientTransform="matrix(-4.72727 0 0 -1.63636 238.545 49.766)"
         r="44" fy="194.19" fx="64" cy="194.19" cx="64" id="prefix__e" xlink:href="#prefix__b" />
   </defs>
   <g transform="translate(0 -172)">
      <rect transform="matrix(.25 0 0 .25 0 225)" style="marker:none" width="416" height="376" x="48" y="-124" rx="32"
         ry="32" fill="url(#prefix__d)" />
      <rect ry="32" rx="32" y="-164" x="48" height="384" width="416" style="marker:none"
         transform="matrix(.25 0 0 .25 0 225)" fill="#deddda" />
      <rect transform="scale(1 -1)" ry="4" rx="4" y="-276" x="16" height="88" width="96" style="marker:none"
         fill="#241f31" />
      <path transform="scale(-1)" style="marker:none" opacity=".05" fill="url(#prefix__e)" d="M-108-272h88v78h-88z" />
      <g fill="#fff" font-weight="700" font-family="Source Code Pro" letter-spacing="0" word-spacing="0">
         <path d="M42.012 208.888L28 201.272V206l9.71 4.63v.142L28 216v4.728l14.012-8.214zM46 224v4h16v-4z"
            style="line-height:1.25;-inkscape-font-specification:'Source Code Pro, Bold';font-variant-ligatures:normal;font-variant-caps:normal;font-variant-numeric:normal;font-feature-settings:normal;text-align:start" />
      </g>
      <path
         d="M100 244h4v4h-4zm-8 0h4v4h-4zm-8 0h4v4h-4zm-8 0h4v4h-4zm-8 0h4v4h-4zm-8 0h4v4h-4zm-8 0h4v4h-4zm-8 0h4v4h-4zm-8 0h4v4h-4zm-8 0h4v4h-4zm-8 0h4v4h-4zm84 4h4v4h-4zm-8 0h4v4h-4zm-8 0h4v4h-4zm-8 0h4v4h-4zm-8 0h4v4h-4zm-8 0h4v4h-4zm-8 0h4v4h-4zm-8 0h4v4h-4zm-8 0h4v4h-4zm-8 0h4v4h-4zm-8 0h4v4h-4zm76 4h4v4h-4zm-8 0h4v4h-4zm-8 0h4v4h-4zm-8 0h4v4h-4zm-8 0h4v4h-4zm-8 0h4v4h-4zm-8 0h4v4h-4zm-8 0h4v4h-4zm-8 0h4v4h-4zm-8 0h4v4h-4zm-8 0h4v4h-4zm84 4h4v4h-4zm-8 0h4v4h-4zm-8 0h4v4h-4zm-8 0h4v4h-4zm-8 0h4v4h-4zm-8 0h4v4h-4zm-8 0h4v4h-4zm-8 0h4v4h-4zm-8 0h4v4h-4zm-8 0h4v4h-4zm-8 0h4v4h-4zm76 4h4v4h-4zm-8 0h4v4h-4zm-8 0h4v4h-4zm-8 0h4v4h-4zm-8 0h4v4h-4zm-8 0h4v4h-4zm-8 0h4v4h-4zm-8 0h4v4h-4zm-8 0h4v4h-4zm-8 0h4v4h-4zm-8 0h4v4h-4zm84 4h4v4h-4zm-8 0h4v4h-4zm-8 0h4v4h-4zm-8 0h4v4h-4zm-8 0h4v4h-4zm-8 0h4v4h-4zm-8 0h4v4h-4zm-8 0h4v4h-4zm-8 0h4v4h-4zm-8 0h4v4h-4zm-8 0h4v4h-4zm76 4h4v4h-4zm-8 0h4v4h-4zm-8 0h4v4h-4zm-8 0h4v4h-4zm-8 0h4v4h-4zm-8 0h4v4h-4zm-8 0h4v4h-4zm-8 0h4v4h-4zm-8 0h4v4h-4zm-8 0h4v4h-4zm-8 0h4v4h-4z"
         style="marker:none" fill="url(#prefix__f)" />
   </g>
</svg>